<svg width="1080" height="1080" viewBox="0 0 1080 1080" fill="none" xmlns="http://www.w3.org/2000/svg">
<path d="M720.618 89H951.081L474.792 991.096V569.679L720.618 89Z" fill="#ED1C24"/>
<path d="M128 310.683H347.488L481.968 558.717L479.181 991.096L128 310.683Z" fill="#ED1C24"/>
<path d="M389.368 826.06L336.348 720.766C386.464 713.084 495.59 693.689 515.783 680.52C541.024 664.058 307.414 624.939 293.002 622.356C279.594 619.952 266.226 606.776 340.192 588.335C396.089 574.399 459.303 559.769 482.715 556.477C451.986 568.183 364.336 602.103 442.254 609.186C480.884 612.698 565.167 628.209 602.48 635.525C676.009 659.669 645.281 691.494 629.916 711.248C617.625 727.052 462.897 795.332 389.368 826.06Z" fill="#FFFDFD" stroke="white" stroke-width="0.645571"/>
</svg>
