<svg width="100" height="100" viewBox="0 0 100 100" fill="none" xmlns="http://www.w3.org/2000/svg">
<g clip-path="url(#clip0_202_1327)">
<path d="M70.4776 0.328125H95.9413L43.3164 100V53.4381L70.4776 0.328125Z" fill="#ED1C24"/>
<path d="M5 24.8232H29.2511L44.1097 52.2284L43.8018 100.002L5 24.8232Z" fill="#ED1C24"/>
<path d="M33.8789 81.7656L28.0207 70.1317C33.558 69.2829 45.6152 67.14 47.8463 65.685C50.6352 63.8661 24.8238 59.5439 23.2315 59.2584C21.75 58.9928 20.2729 57.537 28.4454 55.4995C34.6215 53.9597 41.6059 52.3433 44.1927 51.9795C40.7975 53.2729 31.1131 57.0207 39.7222 57.8034C43.9904 58.1914 53.3028 59.9051 57.4255 60.7135C65.5496 63.3811 62.1545 66.8975 60.4569 69.0801C59.0988 70.8262 42.003 78.3704 33.8789 81.7656Z" fill="#FFFDFD" stroke="white" stroke-width="0.645571"/>
</g>
<defs>
<clipPath id="clip0_202_1327">
<rect width="100" height="100" fill="white"/>
</clipPath>
</defs>
</svg>
